<svg width="18" height="18" fill="none" stroke="currentColor" stroke-linecap="round" stroke-linejoin="round" stroke-width="1.5" viewBox="0 0 24 24" xmlns="http://www.w3.org/2000/svg">
  <path d="M2 21h20"></path>
  <path d="M9 11H5a1 1 0 0 0-1 1v8a1 1 0 0 0 1 1h4a1 1 0 0 0 1-1v-8a1 1 0 0 0-1-1Z"></path>
  <path d="M19 2h-8a1 1 0 0 0-1 1v17a1 1 0 0 0 1 1h8a1 1 0 0 0 1-1V3a1 1 0 0 0-1-1Z"></path>
  <path d="M14 16.004h2"></path>
  <path d="M6 16.004h2"></path>
  <path d="M14 11.504h2"></path>
  <path d="M14 7.004h2"></path>
</svg>